<?xml version="1.0" standalone="no"?>
<!DOCTYPE svg PUBLIC "-//W3C//DTD SVG 20010904//EN"
 "http://www.w3.org/TR/2001/REC-SVG-20010904/DTD/svg10.dtd">
<svg version="1.0" xmlns="http://www.w3.org/2000/svg"
 width="270.000000pt" height="270.000000pt" viewBox="0 0 270.000000 270.000000"
 preserveAspectRatio="xMidYMid meet">
<metadata>
Created by potrace 1.14, written by Peter Selinger 2001-2017
</metadata>
<g transform="translate(0.000000,270.000000) scale(0.100000,-0.100000)"
fill="#000000" stroke="none">
<path d="M1195 2693 c-16 -2 -52 -8 -80 -14 -27 -6 -61 -13 -75 -15 -14 -3
-41 -10 -60 -16 -19 -7 -37 -13 -40 -13 -57 -11 -231 -92 -317 -148 -86 -56
-150 -111 -234 -204 -38 -41 -149 -199 -149 -211 0 -6 -3 -12 -8 -14 -10 -4
-76 -139 -102 -208 -23 -63 -56 -179 -65 -230 -3 -19 -8 -46 -11 -60 -12 -59
-12 -320 0 -400 14 -91 50 -236 70 -285 7 -16 19 -46 26 -65 8 -19 29 -64 48
-100 19 -36 40 -75 46 -87 6 -13 14 -23 19 -23 4 0 7 -5 7 -10 0 -6 4 -16 10
-23 5 -7 36 -46 68 -87 99 -127 232 -231 408 -318 55 -27 115 -54 134 -61 19
-7 44 -17 55 -21 138 -54 368 -86 496 -68 191 26 308 62 469 145 109 56 110
57 205 127 258 191 455 494 511 785 3 14 7 27 9 31 18 29 27 351 13 446 -20
129 -103 387 -130 405 -5 3 -9 8 -8 10 3 9 -15 46 -42 86 -15 23 -28 46 -28
51 0 6 -3 12 -7 14 -5 2 -27 28 -49 59 -76 101 -158 180 -309 297 -103 79
-305 170 -458 204 -87 19 -333 32 -422 21z"/>
</g>
</svg>
